#File written by LIBUNFOLD3D. Compilation :Nov 19 2015,18:10:47
mtllib Campana_tubos.mtl
#begin vertices
v -8.420053 46.13778 20.52392
v 52.5569 46.13778 20.52392
v -8.420053 47.89217 20.52392
v 52.5569 47.89217 20.52392
v -8.420053 47.89217 -0.530344
v 52.5569 47.89217 -0.530344
v -8.420053 46.13778 -0.530344
v 52.5569 46.13778 -0.530344
v 52.23911 16.6366 20.74181
v 53.8732 16.6366 20.74181
v 52.23911 63.88363 20.74181
v 53.8732 63.88363 20.74181
v 52.23911 63.88363 18.79111
v 53.8732 63.88363 18.79111
v 52.23911 16.6366 18.79111
v 53.8732 16.6366 18.79111
v 52.23911 16.6366 1.31238
v 53.8732 16.6366 1.31238
v 52.23911 63.88363 1.31238
v 53.8732 63.88363 1.31238
v 52.23911 63.88363 -0.638319
v 53.8732 63.88363 -0.638319
v 52.23911 16.6366 -0.638319
v 53.8732 16.6366 -0.638319
v -8.420053 58.27853 20.2258
v 52.5569 58.27853 20.2258
v -8.420053 59.10585 20.2258
v 52.5569 59.10585 20.2258
v -8.420053 59.10585 19.06422
v 52.5569 59.10585 19.06422
v -8.420053 58.27853 19.06422
v 52.5569 58.27853 19.06422
v -8.420053 58.27853 0.820313
v 52.5569 58.27853 0.820313
v -8.420053 59.10585 0.820313
v 52.5569 59.10585 0.820313
v -8.420053 59.10585 -0.341271
v 52.5569 59.10585 -0.341271
v -8.420053 58.27853 -0.341271
v 52.5569 58.27853 -0.341271
v -1.931105 74.53973 18.42684
v 46.61072 74.53973 18.42684
v -1.931105 83.75286 18.42684
v 46.61072 83.75286 18.42684
v -1.931105 83.75286 1.831258
v 46.61072 83.75286 1.831258
v -1.931105 74.53973 1.831258
v 46.61072 74.53973 1.831258
v -10.47434 64.81086 -1.089523
v 55.15395 64.81086 -1.089523
v 55.15395 64.81086 21.34762
v -10.47434 64.81086 21.34762
v -5.960232 64.81086 0.453771
v 50.63984 64.81086 0.453771
v 50.63984 64.81086 19.80433
v -5.960232 64.81086 19.80433
v -5.960232 68.44707 0.453771
v 50.63984 68.44707 0.453771
v 50.63984 68.44707 19.80433
v -5.960232 68.44707 19.80433
v -10.47434 61.71828 -1.089523
v 55.15395 61.71828 -1.089523
v 50.63984 61.71828 0.453771
v -5.960232 61.71828 0.453771
v 55.15395 61.71828 21.34762
v 50.63984 61.71828 19.80433
v -10.47434 61.71828 21.34762
v -5.960232 61.71828 19.80433
v -9.65694 16.6366 1.31238
v -8.022852 16.6366 1.31238
v -9.65694 63.88363 1.31238
v -8.022852 63.88363 1.31238
v -9.65694 63.88363 -0.638319
v -8.022852 63.88363 -0.638319
v -9.65694 16.6366 -0.638319
v -8.022852 16.6366 -0.638319
v -9.65694 16.6366 20.74181
v -8.022852 16.6366 20.74181
v -9.65694 63.88363 20.74181
v -8.022852 63.88363 20.74181
v -9.65694 63.88363 18.79111
v -8.022852 63.88363 18.79111
v -9.65694 16.6366 18.79111
v -8.022852 16.6366 18.79111
#end vertices

#begin 256 textures vertices 
vt 0.09385264 0.9661908 0
vt 0.5033695 0.9661908 0
vt 0.09385264 0.9779731 0
vt 0.5033695 0.9779731 0
vt 0.4878556 0.1662924 0
vt 0.8973246 0.1725586 0
vt 0.4851701 0.9419262 0
vt 0.07565322 0.9419262 0
vt 0.8042409 0.6697716 0
vt 0.8152153 0.6697716 0
vt 0.8042409 0.9870793 0
vt 0.8152153 0.9870793 0
vt 0.8010927 0.6575111 0
vt 0.8088528 0.649751 0
vt 0.8365821 0.6739553 0
vt 0.8256077 0.6739553 0
vt 0.8459285 0.6729093 0
vt 0.8569029 0.6729093 0
vt 0.8459285 0.9902171 0
vt 0.8569029 0.9902171 0
vt 0.7777838 0.6204243 0
vt 0.7855439 0.6126643 0
vt 0.8834295 0.6750012 0
vt 0.8724551 0.6750012 0
vt 0.1178451 0.8842937 0
vt 0.527362 0.8842937 0
vt 0.1178451 0.8898499 0
vt 0.527362 0.8898499 0
vt 0.08025135 0.7768747 0
vt 0.4897203 0.7831408 0
vt 0.5141071 0.8695743 0
vt 0.1045902 0.8695743 0
vt 0.08756739 0.8560476 0
vt 0.4970843 0.8560476 0
vt 0.08756739 0.8616038 0
vt 0.4970843 0.8616038 0
vt 0.09023385 0.7979397 0
vt 0.4997028 0.8042058 0
vt 0.4886006 0.8449066 0
vt 0.07908369 0.8449066 0
vt 0.4834143 0.4669657 0
vt 0.8094177 0.4669657 0
vt 0.4834143 0.5288404 0
vt 0.8094177 0.5288404 0
vt 0.06392826 0.3020434 0
vt 0.3898894 0.2967956 0
vt 0.3581695 0.471703 0
vt 0.03216607 0.471703 0
vt 0.6030998 0.5657162 0
vt 0.02072381 0.313158 0
vt 0.01407266 0.5436258 0
vt 0.01885029 0.3934357 0
vt 0.1824247 0.6281591 0
vt 0.5625467 0.6281591 0
vt 0.982055 0.6287188 0
vt 0.5760527 0.5732449 0
vt 0.4935383 0.3303914 0
vt 0.8527437 0.3330682 0
vt 0.8518286 0.4558741 0
vt 0.4926232 0.4531973 0
vt 0.01234495 0.01964835 0
vt 0.4530933 0.02206183 0
vt 0.4227205 0.03226032 0
vt 0.04260418 0.03017885 0
vt 0.4522682 0.1727458 0
vt 0.4220089 0.1622153 0
vt 0.01151982 0.1703323 0
vt 0.04189256 0.1601339 0
vt 0.01550635 0.6616801 0
vt 0.02648077 0.6616801 0
vt 0.01550635 0.9789878 0
vt 0.02648077 0.9789878 0
vt 0.815138 0.6119078 0
vt 0.8228981 0.6041477 0
vt 0.7469313 0.6770931 0
vt 0.7359569 0.6770931 0
vt 0.7562777 0.6770931 0
vt 0.7672521 0.6770931 0
vt 0.7562777 0.9944008 0
vt 0.7672521 0.9944008 0
vt 0.8121283 0.6297003 0
vt 0.8198884 0.6219402 0
vt 0.7917567 0.6729093 0
vt 0.7807823 0.6729093 0
vt 0.7918291 0.6482474 0
vt 0.7034424 0.9923089 0
vt 0.7685202 0.6111607 0
vt 0.5949767 0.9923089 0
vt 0.7034424 0.6750012 0
vt 0.8251703 0.6409704 0
vt 0.8329304 0.6332103 0
vt 0.8908397 0.6729093 0
vt 0.8908397 0.9902171 0
vt 0.7995891 0.6404874 0
vt 0.8365821 0.991263 0
vt 0.6903417 0.9923089 0
vt 0.8256077 0.991263 0
vt 0.9039404 0.9902171 0
vt 0.8159067 0.6317067 0
vt 0.6903417 0.6750012 0
vt 0.9039404 0.6729093 0
vt 0.8236668 0.6239466 0
vt 0.5949767 0.6750012 0
vt 0.815138 0.6517402 0
vt 0.8228981 0.6439801 0
vt 0.7115804 0.678139 0
vt 0.7115804 0.9954467 0
vt 0.7762802 0.6034006 0
vt 0.8834295 0.9923089 0
vt 0.581876 0.9923089 0
vt 0.8724551 0.9923089 0
vt 0.7246811 0.9954467 0
vt 0.8058744 0.6424765 0
vt 0.581876 0.6750012 0
vt 0.7246811 0.678139 0
vt 0.8136344 0.6347164 0
vt 0.4900192 0.02491008 0
vt 0.2681073 0.9180284 0
vt 0.2681073 0.9062461 0
vt 0.4820821 0.3161061 0
vt 0.8914892 0.3255864 0
vt 0.1002365 0.9238927 0
vt 0.1002365 0.935675 0
vt 0.8994882 0.0311762 0
vt 0.4851701 0.9537086 0
vt 0.1267084 0.9180284 0
vt 0.07565322 0.9537086 0
vt 0.2416354 0.935675 0
vt 0.4853555 0.1747451 0
vt 0.1267084 0.9062461 0
vt 0.2416354 0.9238927 0
vt 0.8947626 0.1842253 0
vt 0.8058744 0.6026442 0
vt 0.6575071 0.9923089 0
vt 0.8028646 0.6204366 0
vt 0.6160757 0.9923089 0
vt 0.6575071 0.6750012 0
vt 0.8251703 0.6231779 0
vt 0.8329304 0.6154178 0
vt 0.6231677 0.6750012 0
vt 0.6231677 0.9923089 0
vt 0.8136344 0.5948841 0
vt 0.7469313 0.9944008 0
vt 0.6444064 0.9923089 0
vt 0.7359569 0.9944008 0
vt 0.6362684 0.9923089 0
vt 0.8159067 0.6139143 0
vt 0.6444064 0.6750012 0
vt 0.6362684 0.6750012 0
vt 0.8236668 0.6061542 0
vt 0.6160757 0.6750012 0
vt 0.8051056 0.64047 0
vt 0.8128657 0.63271 0
vt 0.666691 0.6739553 0
vt 0.666691 0.991263 0
vt 0.8106247 0.6126765 0
vt 0.7917567 0.9902171 0
vt 0.6029749 0.9923089 0
vt 0.7807823 0.9902171 0
vt 0.6797917 0.991263 0
vt 0.795842 0.6312064 0
vt 0.6029749 0.6750012 0
vt 0.6797917 0.6739553 0
vt 0.8036021 0.6234463 0
vt 0.08037072 0.7690745 0
vt 0.8347434 0.6467611 0
vt 0.09035322 0.7901395 0
vt 0.7791815 0.5723493 0
vt 0.8347434 0.6412049 0
vt 0.07981121 0.7605809 0
vt 0.4892802 0.766847 0
vt 0.7603448 0.5667931 0
vt 0.7603448 0.5723493 0
vt 0.4898397 0.7753406 0
vt 0.5141071 0.8751304 0
vt 0.8269423 0.6467611 0
vt 0.1045902 0.8751304 0
vt 0.7681459 0.5723493 0
vt 0.07993058 0.7527807 0
vt 0.8269423 0.6412049 0
vt 0.7681459 0.5667931 0
vt 0.4893995 0.7590468 0
vt 0.7791815 0.5667931 0
vt 0.09544517 0.8273543 0
vt 0.5049141 0.8336204 0
vt 0.782416 0.5667931 0
vt 0.782416 0.5723493 0
vt 0.4998222 0.7964056 0
vt 0.4886006 0.8504628 0
vt 0.7713804 0.5723493 0
vt 0.07908369 0.8504628 0
vt 0.7902171 0.5723493 0
vt 0.09556454 0.8195541 0
vt 0.7713804 0.5667931 0
vt 0.7902171 0.5667931 0
vt 0.5050335 0.8258202 0
vt 0.2838855 0.8994622 0
vt 0.1332849 0.6941054 0
vt 0.852098 0.6079492 0
vt 0.1824247 0.6073895 0
vt 0.4069045 0.7238117 0
vt 0.1959306 0.5524753 0
vt 0.136915 0.661627 0
vt 0.8188142 0.5425533 0
vt 0.5760527 0.5976654 0
vt 0.8188142 0.5877433 0
vt 0.1824247 0.6525796 0
vt 0.9487712 0.5877433 0
vt 0.5625467 0.6525796 0
vt 0.852098 0.6531393 0
vt 0.982055 0.6531393 0
vt 0.1959306 0.5976654 0
vt 0.9487712 0.5633228 0
vt 0.852098 0.6287188 0
vt 0.1959306 0.5732449 0
vt 0.5625467 0.6073895 0
vt 0.8188142 0.5633228 0
vt 0.9487712 0.5425533 0
vt 0.982055 0.6079492 0
vt 0.5760527 0.5524753 0
vt 0.1332849 0.714875 0
vt 0.5575907 0.7445813 0
vt 0.5740399 0.714875 0
vt 0.2838855 0.9202317 0
vt 0.57767 0.661627 0
vt 0.4069045 0.7445813 0
vt 0.57767 0.6823965 0
vt 0.4345717 0.8994622 0
vt 0.136915 0.6823965 0
vt 0.4345717 0.9202317 0
vt 0.5740399 0.6941054 0
vt 0.5575907 0.7238117 0
vt 0.06213412 0.1906031 0
vt 0.9912757 0.426212 0
vt 0.9912757 0.3643372 0
vt 0.07622606 0.4616551 0
vt 0.7341703 0.6526707 0
vt 0.4614788 0.313158 0
vt 0.03368841 0.6305802 0
vt 0.874797 0.4583741 0
vt 0.4022295 0.4616551 0
vt 0.874797 0.5202489 0
vt 0.3880953 0.1853553 0
vt 0.3581695 0.5335778 0
vt 0.879821 0.426212 0
vt 0.03216607 0.5335778 0
vt 0.9862517 0.5202489 0
vt 0.404103 0.3813773 0
vt 0.6227156 0.6526707 0
vt 0.879821 0.3643372 0
vt 0.9862517 0.4583741 0
vt 0.07809957 0.3813773 0
vt 0.1451432 0.6305802 0
vt 0.1647589 0.5436258 0
vt 0.4596052 0.3934357 0
vt 0.7537861 0.5657162 0
#end 256 textures vertices 

#begin 272 normals 
vn 0 0 1
vn 0 0 1
vn 0 0 1
vn 0 0 1
vn 0 1 0
vn 0 1 0
vn 0 1 0
vn 0 1 0
vn 0 0 -1
vn 0 0 -1
vn 0 0 -1
vn 0 0 -1
vn 0 -1 0
vn 0 -1 0
vn 0 -1 0
vn 0 -1 0
vn 1 0 0
vn 1 0 0
vn 1 0 0
vn 1 0 0
vn -1 0 0
vn -1 0 0
vn -1 0 0
vn -1 0 0
vn 0 0 1
vn 0 0 1
vn 0 0 1
vn 0 0 1
vn 0 1 0
vn 0 1 0
vn 0 1 0
vn 0 1 0
vn 0 0 -1
vn 0 0 -1
vn 0 0 -1
vn 0 0 -1
vn 0 -1 0
vn 0 -1 0
vn 0 -1 0
vn 0 -1 0
vn 1 0 0
vn 1 0 0
vn 1 0 0
vn 1 0 0
vn -1 0 0
vn -1 0 0
vn -1 0 0
vn -1 0 0
vn 0 0 1
vn 0 0 1
vn 0 0 1
vn 0 0 1
vn 0 1 0
vn 0 1 0
vn 0 1 0
vn 0 1 0
vn 0 0 -1
vn 0 0 -1
vn 0 0 -1
vn 0 0 -1
vn 0 -1 0
vn 0 -1 0
vn 0 -1 0
vn 0 -1 0
vn 1 0 0
vn 1 0 0
vn 1 0 0
vn 1 0 0
vn -1 0 0
vn -1 0 0
vn -1 0 0
vn -1 0 0
vn 0 0 1
vn 0 0 1
vn 0 0 1
vn 0 0 1
vn 0 1 0
vn 0 1 0
vn 0 1 0
vn 0 1 0
vn 0 0 -1
vn 0 0 -1
vn 0 0 -1
vn 0 0 -1
vn 0 -1 0
vn 0 -1 0
vn 0 -1 0
vn 0 -1 0
vn 1 0 0
vn 1 0 0
vn 1 0 0
vn 1 0 0
vn -1 0 0
vn -1 0 0
vn -1 0 0
vn -1 0 0
vn 0 0 1
vn 0 0 1
vn 0 0 1
vn 0 0 1
vn 0 1 0
vn 0 1 0
vn 0 1 0
vn 0 1 0
vn 0 0 -1
vn 0 0 -1
vn 0 0 -1
vn 0 0 -1
vn 0 -1 0
vn 0 -1 0
vn 0 -1 0
vn 0 -1 0
vn 1 0 0
vn 1 0 0
vn 1 0 0
vn 1 0 0
vn -1 0 0
vn -1 0 0
vn -1 0 0
vn -1 0 0
vn 0 0 1
vn 0 0 1
vn 0 0 1
vn 0 0 1
vn 0 1 0
vn 0 1 0
vn 0 1 0
vn 0 1 0
vn 0 0 -1
vn 0 0 -1
vn 0 0 -1
vn 0 0 -1
vn 0 -1 0
vn 0 -1 0
vn 0 -1 0
vn 0 -1 0
vn 1 0 0
vn 1 0 0
vn 1 0 0
vn 1 0 0
vn -1 0 0
vn -1 0 0
vn -1 0 0
vn -1 0 0
vn 0 0.287539 -0.957769
vn 0 0.287539 -0.957769
vn 0 0.287539 -0.957769
vn 0 0.287539 -0.957769
vn 0.751409 0.659837 0
vn 0.751409 0.659837 0
vn 0.751409 0.659837 0
vn 0.751409 0.659837 0
vn 0 0.287539 0.957769
vn 0 0.287539 0.957769
vn 0 0.287539 0.957769
vn 0 0.287539 0.957769
vn -0.751409 0.659837 0
vn -0.751409 0.659837 0
vn -0.751409 0.659837 0
vn -0.751409 0.659837 0
vn 0 -1 1e-006
vn 0 -1 1e-006
vn 0 -1 1e-006
vn 0 -1 1e-006
vn 0 -1 0
vn 0 -1 0
vn 0 -1 0
vn 0 -1 0
vn 0 -1 -1e-006
vn 0 -1 -1e-006
vn 0 -1 -1e-006
vn 0 -1 -1e-006
vn 0 -1 0
vn 0 -1 0
vn 0 -1 0
vn 0 -1 0
vn 0 0 1
vn 0 0 1
vn 0 0 1
vn 0 0 1
vn -1 0 0
vn -1 0 0
vn -1 0 0
vn -1 0 0
vn 0 0 -1
vn 0 0 -1
vn 0 0 -1
vn 0 0 -1
vn 1 0 0
vn 1 0 0
vn 1 0 0
vn 1 0 0
vn 0 0 -1
vn 0 0 -1
vn 0 0 -1
vn 0 0 -1
vn 0 0 1
vn 0 0 1
vn 0 0 1
vn 0 0 1
vn 1 0 0
vn 1 0 0
vn 1 0 0
vn 1 0 0
vn -1 0 0
vn -1 0 0
vn -1 0 0
vn -1 0 0
vn 0 0 1
vn 0 0 1
vn 0 0 1
vn 0 0 1
vn 0 0 -1
vn 0 0 -1
vn 0 0 -1
vn 0 0 -1
vn -1 0 0
vn -1 0 0
vn -1 0 0
vn -1 0 0
vn 1 0 0
vn 1 0 0
vn 1 0 0
vn 1 0 0
vn 0 0 1
vn 0 0 1
vn 0 0 1
vn 0 0 1
vn 0 1 0
vn 0 1 0
vn 0 1 0
vn 0 1 0
vn 0 0 -1
vn 0 0 -1
vn 0 0 -1
vn 0 0 -1
vn 0 -1 0
vn 0 -1 0
vn 0 -1 0
vn 0 -1 0
vn 1 0 0
vn 1 0 0
vn 1 0 0
vn 1 0 0
vn -1 0 0
vn -1 0 0
vn -1 0 0
vn -1 0 0
vn 0 0 1
vn 0 0 1
vn 0 0 1
vn 0 0 1
vn 0 1 0
vn 0 1 0
vn 0 1 0
vn 0 1 0
vn 0 0 -1
vn 0 0 -1
vn 0 0 -1
vn 0 0 -1
vn 0 -1 0
vn 0 -1 0
vn 0 -1 0
vn 0 -1 0
vn 1 0 0
vn 1 0 0
vn 1 0 0
vn 1 0 0
vn -1 0 0
vn -1 0 0
vn -1 0 0
vn -1 0 0
#end 272 normals 

#begin 68 faces
usemtl initialShadingGroup
g Campana_Tubos
s off
f 1/1/1 2/2/2 4/4/3 3/3/4 
f 3/117/5 4/124/6 6/6/7 5/5/8 
f 5/125/9 6/127/10 8/8/11 7/7/12 
f 7/129/13 8/132/14 2/121/15 1/120/16 
f 2/122/17 8/131/18 6/128/19 4/123/20 
f 7/130/21 1/119/22 3/118/23 5/126/24 
f 9/9/25 10/10/26 12/12/27 11/11/28 
f 11/85/29 12/94/30 14/14/31 13/13/32 
f 13/95/33 14/97/34 16/16/35 15/15/36 
f 15/99/37 16/102/38 10/91/39 9/90/40 
f 10/92/41 16/101/42 14/98/43 12/93/44 
f 15/100/45 9/89/46 11/86/47 13/96/48 
f 17/17/49 18/18/50 20/20/51 19/19/52 
f 19/87/53 20/108/54 22/22/55 21/21/56 
f 21/109/57 22/111/58 24/24/59 23/23/60 
f 23/113/61 24/116/62 18/105/63 17/104/64 
f 18/106/65 24/115/66 22/112/67 20/107/68 
f 23/114/69 17/103/70 19/88/71 21/110/72 
f 25/25/73 26/26/74 28/28/75 27/27/76 
f 27/165/77 28/174/78 30/30/79 29/29/80 
f 29/175/81 30/177/82 32/32/83 31/31/84 
f 31/179/85 32/182/86 26/171/87 25/170/88 
f 26/172/89 32/181/90 30/178/91 28/173/92 
f 31/180/93 25/169/94 27/166/95 29/176/96 
f 33/33/97 34/34/98 36/36/99 35/35/100 
f 35/167/101 36/188/102 38/38/103 37/37/104 
f 37/189/105 38/191/106 40/40/107 39/39/108 
f 39/193/109 40/196/110 34/185/111 33/184/112 
f 34/186/113 40/195/114 38/192/115 36/187/116 
f 39/194/117 33/183/118 35/168/119 37/190/120 
f 41/41/121 42/42/122 44/44/123 43/43/124 
f 43/233/125 44/243/126 46/46/127 45/45/128 
f 45/244/129 46/246/130 48/48/131 47/47/132 
f 57/57/133 58/58/134 59/59/135 60/60/136 
f 42/240/137 48/251/138 46/247/139 44/242/140 
f 47/250/141 41/235/142 43/234/143 45/245/144 
f 47/248/145 48/252/146 50/50/147 49/238/148 
f 48/253/149 42/239/150 51/51/151 50/254/152 
f 42/241/153 41/236/154 52/52/155 51/255/156 
f 41/237/157 47/249/158 49/49/159 52/256/160 
f 61/61/161 62/62/162 63/63/163 64/64/164 
f 62/62/165 65/65/166 66/66/167 63/63/168 
f 65/65/169 67/67/170 68/68/171 66/66/172 
f 67/67/173 61/61/174 64/64/175 68/68/176 
f 53/53/177 54/54/178 58/209/179 57/207/180 
f 54/214/181 55/55/182 59/211/183 58/210/184 
f 55/215/185 56/56/186 60/205/187 59/212/188 
f 56/217/189 53/213/190 57/208/191 60/206/192 
f 49/223/193 50/221/194 62/198/195 61/231/196 
f 54/54/197 53/53/198 64/200/199 63/216/200 
f 50/222/201 51/226/202 65/201/203 62/232/204 
f 55/55/205 54/214/206 63/199/207 66/219/208 
f 51/227/209 52/229/210 67/203/211 65/225/212 
f 56/56/213 55/215/214 66/202/215 68/220/216 
f 52/230/217 49/224/218 61/197/219 67/228/220 
f 53/213/221 56/217/222 68/204/223 64/218/224 
f 69/69/225 70/70/226 72/72/227 71/71/228 
f 71/133/229 72/142/230 74/74/231 73/73/232 
f 73/143/233 74/145/234 76/76/235 75/75/236 
f 75/147/237 76/150/238 70/139/239 69/138/240 
f 70/140/241 76/149/242 74/146/243 72/141/244 
f 75/148/245 69/137/246 71/134/247 73/144/248 
f 77/77/249 78/78/250 80/80/251 79/79/252 
f 79/135/253 80/156/254 82/82/255 81/81/256 
f 81/157/257 82/159/258 84/84/259 83/83/260 
f 83/161/261 84/164/262 78/153/263 77/152/264 
f 78/154/265 84/163/266 82/160/267 80/155/268 
f 83/162/269 77/151/270 79/136/271 81/158/272 
#end 68 faces

#begin properties
#U3DPROPERTIES_00 table {Mesh table {IslandsUVW table {Selected ints { 10 } } SymPlane table {Point vector3d 0 0 0  Normal vector3d 1 0 0  Threshold double 0.01 Enabled bool false } Maps table {Density table {PrimType string "Polygon" Size int 1 DefaultValue double 1 ScaleType string "Log" MinValue double 0.1 MaxValue double 4 Data doubles { r 69 1 } } Pin table {PrimType string "Vertex" Size int 1 DefaultValue double 0 ScaleType string "Normalized" MinValue double 0 MaxValue double 1 Data doubles { r 256 0 } } Protect table {PrimType string "Vertex" Size int 1 DefaultValue double 0 ScaleType string "Normalized" MinValue double -1 MaxValue double 1 Data doubles { r 256 0 } } } } }
#end properties

#begin 0 fatal error vertex (that Unfold3D cannot handle)
#end 0 fatal error vertex (that Unfold3D cannot handle)

#begin 0 error vertex
#end 0 error vertex
