#File written by LIBUNFOLD3D. Compilation :Nov 19 2015,18:10:47
mtllib Parrilla.mtl
#begin vertices
v -7.405429 25.68563 6.175985
v 9.096189 25.68563 6.175985
v -7.405429 27.0662 6.175985
v 9.096189 27.0662 6.175985
v -7.405429 27.0662 -10.08958
v 9.096189 27.0662 -10.08958
v -7.405429 25.68563 -10.08958
v 9.096189 25.68563 -10.08958
v -6.641094 27.0662 5.422584
v 8.331854 27.0662 5.422584
v 8.331854 27.0662 -9.336174
v -6.641094 27.0662 -9.336174
v -6.641094 26.37729 5.422584
v 8.331854 26.37729 5.422584
v 8.331854 26.37729 -9.336174
v -6.641094 26.37729 -9.336174
v 1.045354 26.85323 6.011661
v 1.045354 26.85323 5.492299
v 1.045354 28.71551 6.011661
v 1.045354 28.71551 5.492299
v 0.14902 28.71551 6.011661
v 0.14902 28.71551 5.492299
v 0.14902 26.85323 6.011661
v 0.14902 26.85323 5.492299
v 1.045354 28.22119 6.011661
v 0.14902 28.22119 6.011661
v 0.14902 28.22119 5.492299
v 1.045354 28.22119 5.492299
v 0.413002 28.35548 1.024732
v 0.781371 28.35548 1.024732
v 0.413002 28.58122 1.024732
v 0.781371 28.58122 1.024732
v -7.253686 26.85323 -1.243678
v -6.734324 26.85323 -1.243678
v -7.253686 28.71551 -1.243678
v -6.734324 28.71551 -1.243678
v -7.253686 28.71551 -2.140011
v -6.734324 28.71551 -2.140011
v -7.253686 26.85323 -2.140011
v -6.734324 26.85323 -2.140011
v -7.253686 28.22119 -1.243678
v -7.253686 28.22119 -2.140011
v -6.734324 28.22119 -2.140011
v -6.734324 28.22119 -1.243678
v -2.266757 28.35548 -1.876029
v -2.266757 28.35548 -1.50766
v -2.266757 28.58122 -1.876029
v -2.266757 28.58122 -1.50766
v 3.118289 26.20132 -4.053277
v 1.572507 26.20132 -5.176353
v -0.338184 26.20132 -5.176353
v -1.883965 26.20132 -4.053276
v -2.474401 26.20132 -2.236101
v -1.883965 26.20132 -0.418927
v -0.338183 26.20132 0.704149
v 1.572507 26.20132 0.704149
v 3.118288 26.20132 -0.418927
v 3.708725 26.20132 -2.236101
v 3.118289 27.1525 -4.053277
v 1.572507 27.1525 -5.176353
v -0.338184 27.1525 -5.176353
v -1.883965 27.1525 -4.053276
v -2.474401 27.1525 -2.236101
v -1.883965 27.1525 -0.418927
v -0.338183 27.1525 0.704149
v 1.572507 27.1525 0.704149
v 3.118288 27.1525 -0.418927
v 3.708725 27.1525 -2.236101
v 0.617162 26.20132 -2.236101
v 0.617162 27.1525 -2.236101
v 9.03305 26.85323 -2.140011
v 8.513689 26.85323 -2.140011
v 9.03305 28.71551 -2.140011
v 8.513689 28.71551 -2.140011
v 9.03305 28.71551 -1.243678
v 8.513689 28.71551 -1.243678
v 9.03305 26.85323 -1.243678
v 8.513689 26.85323 -1.243678
v 9.03305 28.22119 -2.140011
v 9.03305 28.22119 -1.243678
v 8.513689 28.22119 -1.243678
v 8.513689 28.22119 -2.140011
v 4.046121 28.35548 -1.50766
v 4.046121 28.35548 -1.876029
v 4.046121 28.58122 -1.50766
v 4.046121 28.58122 -1.876029
v 0.14902 26.85323 -9.934945
v 0.14902 26.85323 -9.415584
v 0.14902 28.71551 -9.934945
v 0.14902 28.71551 -9.415584
v 1.045354 28.71551 -9.934945
v 1.045354 28.71551 -9.415584
v 1.045354 26.85323 -9.934945
v 1.045354 26.85323 -9.415584
v 0.14902 28.22119 -9.934945
v 1.045354 28.22119 -9.934945
v 1.045354 28.22119 -9.415584
v 0.14902 28.22119 -9.415584
v 0.781371 28.35548 -4.948016
v 0.413002 28.35548 -4.948016
v 0.781371 28.58122 -4.948016
v 0.413002 28.58122 -4.948016
#end vertices

#begin 268 textures vertices 
vt 0.02496042 0.4747312 0
vt 0.4815455 0.4747312 0
vt 0.4687739 0.6307813 0
vt 0.4815455 0.5129302 0
vt 0.4815455 0.4519246 0
vt 0.472934 0.5676957 0
vt 0.4815455 0.4137256 0
vt 0.02496042 0.4137256 0
vt 0.03062485 0.03417886 0
vt 0.3309833 0.03472794 0
vt 0.3304421 0.3307897 0
vt 0.03008363 0.3302406 0
vt 0.4116737 0.3771418 0
vt 0.4118186 0.01315858 0
vt 0.770595 0.01330142 0
vt 0.7704501 0.3772846 0
vt 0.02955537 0.9158972 0
vt 0.04392565 0.9158977 0
vt 0.7483033 0.5558437 0
vt 0.7483033 0.5414734 0
vt 0.7731041 0.5558437 0
vt 0.7731041 0.5414734 0
vt 0.6461564 0.8430962 0
vt 0.6317861 0.8430967 0
vt 0.02955402 0.9537475 0
vt 0.6461577 0.8809464 0
vt 0.6317874 0.880947 0
vt 0.04392431 0.953748 0
vt 0.8287337 0.9378044 0
vt 0.8185413 0.9378044 0
vt 0.8287337 0.9440505 0
vt 0.8185413 0.9440505 0
vt 0.02704229 0.8467701 0
vt 0.04141258 0.8467707 0
vt 0.6152549 0.7229301 0
vt 0.6152549 0.7085598 0
vt 0.6400556 0.7229301 0
vt 0.6400556 0.7085598 0
vt 0.6504608 0.9237908 0
vt 0.6360905 0.9237913 0
vt 0.02704094 0.8846204 0
vt 0.6504621 0.9616411 0
vt 0.6360919 0.9616416 0
vt 0.04141123 0.884621 0
vt 0.8889206 0.9380758 0
vt 0.8787282 0.9380758 0
vt 0.8889206 0.9443219 0
vt 0.8787282 0.9443219 0
vt 0.3950302 0.6819864 0
vt 0.3421631 0.6819864 0
vt 0.289296 0.6819864 0
vt 0.2364289 0.6819864 0
vt 0.1835617 0.6819864 0
vt 0.1306947 0.6819864 0
vt 0.07782752 0.6819864 0
vt 0.5536316 0.6819864 0
vt 0.5007645 0.6819864 0
vt 0.4478974 0.6819864 0
vt 0.3950302 0.6556679 0
vt 0.3421631 0.6556679 0
vt 0.289296 0.6556679 0
vt 0.2364289 0.6556679 0
vt 0.1835617 0.6556679 0
vt 0.1306947 0.6556679 0
vt 0.07782752 0.6556679 0
vt 0.02496042 0.6556679 0
vt 0.5007645 0.6556679 0
vt 0.4478974 0.6556679 0
vt 0.8929467 0.4967681 0
vt 0.9004009 0.3065261 0
vt 0.3579024 0.9227308 0
vt 0.3722727 0.9227313 0
vt 0.5734629 0.7290621 0
vt 0.5734629 0.7146919 0
vt 0.5982637 0.7290621 0
vt 0.5982637 0.7146919 0
vt 0.3213789 0.9118501 0
vt 0.3070087 0.9118506 0
vt 0.3579011 0.9605811 0
vt 0.3213803 0.9497004 0
vt 0.30701 0.9497009 0
vt 0.3722713 0.9605816 0
vt 0.9170078 0.9380758 0
vt 0.9068154 0.9380758 0
vt 0.9170078 0.9443219 0
vt 0.9068154 0.9443219 0
vt 0.3515212 0.8426101 0
vt 0.3658915 0.8426106 0
vt 0.6971881 0.5637123 0
vt 0.6971881 0.5493421 0
vt 0.7219889 0.5637123 0
vt 0.7219889 0.5493421 0
vt 0.3212379 0.83845 0
vt 0.3068676 0.8384505 0
vt 0.3515199 0.8804604 0
vt 0.3212392 0.8763003 0
vt 0.3068689 0.8763008 0
vt 0.3658901 0.8804609 0
vt 0.8608334 0.9380755 0
vt 0.850641 0.9380755 0
vt 0.8608334 0.9443216 0
vt 0.850641 0.9443216 0
vt 0.3463435 0.01964269 0
vt 0.425002 0.7511623 0
vt 0.01531986 0.01903755 0
vt 0.4309285 0.7196944 0
vt 0.01472338 0.3453259 0
vt 0.345747 0.345931 0
vt 0.4314537 0.8286097 0
vt 0.4352532 0.7888217 0
vt 0.01664028 0.7006329 0
vt 0.425002 0.7321008 0
vt 0.01664028 0.7196944 0
vt 0.4352532 0.7697602 0
vt 0.01664028 0.7321008 0
vt 0.02096508 0.7888217 0
vt 0.02096508 0.7697602 0
vt 0.4314537 0.8095482 0
vt 0.01664028 0.7511623 0
vt 0.02309202 0.8095482 0
vt 0.4309285 0.7006329 0
vt 0.02309202 0.8286097 0
vt 0.9378996 0.3834097 0
vt 0.975929 0.3466851 0
vt 0.9619338 0.2471045 0
vt 0.8855469 0.3907674 0
vt 0.838868 0.3659477 0
vt 0.8156926 0.3184311 0
vt 0.8248729 0.2663672 0
vt 0.8629023 0.2296426 0
vt 0.9152549 0.2222849 0
vt 0.9851093 0.2946211 0
vt 0.9621507 0.4464884 0
vt 0.9621507 0.5470477 0
vt 0.9193803 0.4154139 0
vt 0.8665132 0.4154139 0
vt 0.8237428 0.4464885 0
vt 0.8074059 0.4967681 0
vt 0.8237428 0.5470477 0
vt 0.8665132 0.5781222 0
vt 0.9193803 0.5781222 0
vt 0.9784875 0.4967681 0
vt 0.02496042 0.6819864 0
vt 0.5536316 0.6556679 0
vt 0.02496042 0.5129302 0
vt 0.4687739 0.5925823 0
vt 0.8210028 0.02300757 0
vt 0.8196688 0.1847391 0
vt 0.02288039 0.5294967 0
vt 0.02288039 0.5676957 0
vt 0.9804208 0.0243225 0
vt 0.01872032 0.5925823 0
vt 0.01872032 0.6307813 0
vt 0.02496042 0.4519246 0
vt 0.472934 0.5294967 0
vt 0.9790867 0.1860541 0
vt 0.7288194 0.7575618 0
vt 0.8426838 0.7147353 0
vt 0.7288194 0.7954121 0
vt 0.8528451 0.704574 0
vt 0.5555141 0.8079872 0
vt 0.04141074 0.8982983 0
vt 0.5555141 0.8458375 0
vt 0.6506758 0.439302 0
vt 0.7040187 0.8090895 0
vt 0.6504626 0.9753185 0
vt 0.7288194 0.8090895 0
vt 0.02704046 0.8982978 0
vt 0.6360923 0.975319 0
vt 0.825147 0.6971985 0
vt 0.7040187 0.7575618 0
vt 0.7040187 0.7954121 0
vt 0.6754766 0.439302 0
vt 0.5803149 0.8458375 0
vt 0.5803149 0.8079872 0
vt 0.8353083 0.6870372 0
vt 0.622559 0.5848904 0
vt 0.1652401 0.8945871 0
vt 0.65798 0.5629714 0
vt 0.1652403 0.888341 0
vt 0.6681724 0.5629714 0
vt 0.5122628 0.9653616 0
vt 0.512263 0.9716077 0
vt 0.6327515 0.5848904 0
vt 0.7817195 0.766429 0
vt 0.8577595 0.6510372 0
vt 0.7817195 0.8042793 0
vt 0.8475982 0.6408759 0
vt 0.4650259 0.8009053 0
vt 0.3658897 0.8941383 0
vt 0.4650259 0.8387556 0
vt 0.5102533 0.4351419 0
vt 0.7569187 0.8179567 0
vt 0.3212397 0.8899777 0
vt 0.7817195 0.8179567 0
vt 0.3515194 0.8941378 0
vt 0.3068694 0.8899782 0
vt 0.8402227 0.668574 0
vt 0.7569187 0.766429 0
vt 0.7569187 0.8042793 0
vt 0.535054 0.4351419 0
vt 0.4898266 0.8387556 0
vt 0.4898266 0.8009053 0
vt 0.8300614 0.6584126 0
vt 0.7044923 0.4256726 0
vt 0.489719 0.890427 0
vt 0.5175574 0.5588114 0
vt 0.4897193 0.8841809 0
vt 0.5277499 0.5588114 0
vt 0.1830398 0.8800208 0
vt 0.18304 0.886267 0
vt 0.7146847 0.4256726 0
vt 0.6600307 0.7622689 0
vt 0.7072199 0.6904436 0
vt 0.6600307 0.8001192 0
vt 0.7173812 0.6802823 0
vt 0.5139 0.7959034 0
vt 0.04392382 0.9674254 0
vt 0.5139 0.8337537 0
vt 0.5633009 0.4309819 0
vt 0.6352299 0.8137966 0
vt 0.6461582 0.8946238 0
vt 0.6600307 0.8137966 0
vt 0.02955354 0.9674249 0
vt 0.6317879 0.8946244 0
vt 0.6896831 0.6729069 0
vt 0.6352299 0.7622689 0
vt 0.6352299 0.8001192 0
vt 0.5881017 0.4309819 0
vt 0.5387007 0.8337537 0
vt 0.5387007 0.7959034 0
vt 0.6998444 0.6627455 0
vt 0.7556075 0.417804 0
vt 0.1677532 0.9637141 0
vt 0.5706051 0.5546513 0
vt 0.1677534 0.957468 0
vt 0.5807975 0.5546513 0
vt 0.5079583 0.884667 0
vt 0.5079586 0.8909131 0
vt 0.7657999 0.417804 0
vt 0.8317879 0.765882 0
vt 0.8928637 0.6717132 0
vt 0.8317879 0.8037323 0
vt 0.8827024 0.6615519 0
vt 0.7687997 0.6654459 0
vt 0.3722708 0.974259 0
vt 0.7687997 0.7032962 0
vt 0.6080284 0.437222 0
vt 0.8069871 0.8174097 0
vt 0.3213808 0.9633778 0
vt 0.8317879 0.8174097 0
vt 0.3579006 0.9742585 0
vt 0.3070105 0.9633783 0
vt 0.8753269 0.6892499 0
vt 0.8069871 0.765882 0
vt 0.8069871 0.8037323 0
vt 0.6328291 0.437222 0
vt 0.7936004 0.7032962 0
vt 0.7936004 0.6654459 0
vt 0.8651656 0.6790886 0
vt 0.5807671 0.5910224 0
vt 0.4961002 0.9705477 0
vt 0.6153325 0.5608914 0
vt 0.4961004 0.9643016 0
vt 0.625525 0.5608914 0
vt 0.1831809 0.9534209 0
vt 0.1831811 0.959667 0
vt 0.5909595 0.5910224 0
#end 268 textures vertices 

#begin 318 normals 
vn 0 0 1
vn 0 0 1
vn 0 0 1
vn 0 0 1
vn 0 1 0
vn 0 1 0
vn 0 1 0
vn 0 1 0
vn 0 0 -1
vn 0 0 -1
vn 0 0 -1
vn 0 0 -1
vn 0 -1 0
vn 0 -1 0
vn 0 -1 0
vn 0 -1 0
vn 1 0 0
vn 1 0 0
vn 1 0 0
vn 1 0 0
vn -1 0 0
vn -1 0 0
vn -1 0 0
vn -1 0 0
vn 0 1 1e-006
vn 0 1 1e-006
vn 0 1 1e-006
vn 0 1 1e-006
vn 0 1 0
vn 0 1 0
vn 0 1 0
vn 0 1 0
vn 0 1 -1e-006
vn 0 1 -1e-006
vn 0 1 -1e-006
vn 0 1 -1e-006
vn 0 1 0
vn 0 1 0
vn 0 1 0
vn 0 1 0
vn 0 0 -1
vn 0 0 -1
vn 0 0 -1
vn 0 0 -1
vn -1 0 0
vn -1 0 0
vn -1 0 0
vn -1 0 0
vn 0 0 1
vn 0 0 1
vn 0 0 1
vn 0 0 1
vn 1 0 0
vn 1 0 0
vn 1 0 0
vn 1 0 0
vn 1 0 0
vn 1 0 0
vn 1 0 0
vn 1 0 0
vn 0 1 0
vn 0 1 0
vn 0 1 0
vn 0 1 0
vn -1 0 0
vn -1 0 0
vn -1 0 0
vn -1 0 0
vn 0 -1 0
vn 0 -1 0
vn 0 -1 0
vn 0 -1 0
vn 0 0 -1
vn 0 0 -1
vn 0 0 -1
vn 0 0 -1
vn 0 0 1
vn 0 0 1
vn 0 0 1
vn 0 0 1
vn 0 0 1
vn 0 0 1
vn -1 0 0
vn -1 0 0
vn 0 0 -1
vn 0 0 -1
vn 0 0 -1
vn 0 0 -1
vn 1 0 0
vn 1 0 0
vn 0 -0.999549 -0.030045
vn 0 -0.999549 -0.030045
vn 0 -0.999549 -0.030045
vn 0 -0.999549 -0.030045
vn -0.998259 0 -0.058986
vn -0.998259 0 -0.058986
vn -0.998259 0 -0.058986
vn -0.998259 0 -0.058986
vn 0 0.999549 -0.030045
vn 0 0.999549 -0.030045
vn 0 0.999549 -0.030045
vn 0 0.999549 -0.030045
vn 0.998259 0 -0.058986
vn 0.998259 0 -0.058986
vn 0.998259 0 -0.058986
vn 0.998259 0 -0.058986
vn 0 0 1
vn 0 0 1
vn 0 0 1
vn 0 0 1
vn 0 1 0
vn 0 1 0
vn 0 1 0
vn 0 1 0
vn 0 0 -1
vn 0 0 -1
vn 0 0 -1
vn 0 0 -1
vn 0 -1 0
vn 0 -1 0
vn 0 -1 0
vn 0 -1 0
vn 1 0 0
vn 1 0 0
vn 1 0 0
vn 1 0 0
vn -1 0 0
vn -1 0 0
vn -1 0 0
vn -1 0 0
vn -1 0 0
vn -1 0 0
vn 0 0 -1
vn 0 0 -1
vn 1 0 0
vn 1 0 0
vn 1 0 0
vn 1 0 0
vn 0 0 1
vn 0 0 1
vn 0.030045 -0.999549 0
vn 0.030045 -0.999549 0
vn 0.030045 -0.999549 0
vn 0.030045 -0.999549 0
vn 0.058986 0 -0.998259
vn 0.058986 0 -0.998259
vn 0.058986 0 -0.998259
vn 0.058986 0 -0.998259
vn 0.030045 0.999549 0
vn 0.030045 0.999549 0
vn 0.030045 0.999549 0
vn 0.030045 0.999549 0
vn 0.058986 0 0.998259
vn 0.058986 0 0.998259
vn 0.058986 0 0.998259
vn 0.058986 0 0.998259
vn 0.587786 0 -0.809017
vn 0.587786 0 -0.809017
vn 0.587786 0 -0.809017
vn 0.587786 0 -0.809017
vn 0 0 -1
vn 0 0 -1
vn 0 0 -1
vn 0 0 -1
vn -0.587785 0 -0.809017
vn -0.587785 0 -0.809017
vn -0.587785 0 -0.809017
vn -0.587785 0 -0.809017
vn -0.951057 0 -0.309017
vn -0.951057 0 -0.309017
vn -0.951057 0 -0.309017
vn -0.951057 0 -0.309017
vn -0.951057 0 0.309017
vn -0.951057 0 0.309017
vn -0.951057 0 0.309017
vn -0.951057 0 0.309017
vn -0.587786 0 0.809017
vn -0.587786 0 0.809017
vn -0.587786 0 0.809017
vn -0.587786 0 0.809017
vn 0 0 1
vn 0 0 1
vn 0 0 1
vn 0 0 1
vn 0.587785 0 0.809017
vn 0.587785 0 0.809017
vn 0.587785 0 0.809017
vn 0.587785 0 0.809017
vn 0.951056 0 0.309018
vn 0.951056 0 0.309018
vn 0.951056 0 0.309018
vn 0.951056 0 0.309018
vn 0.951057 0 -0.309016
vn 0.951057 0 -0.309016
vn 0.951057 0 -0.309016
vn 0.951057 0 -0.309016
vn 0 -1 -0
vn 0 -1 -0
vn 0 -1 0
vn 0 -1 0
vn 0 -1 0
vn 0 -1 0
vn 0 -1 0
vn 0 -1 0
vn 0 -1 0
vn 0 -1 0
vn 0 -1 0
vn 0 1 -1e-006
vn 0 1 -1e-006
vn 0 1 0
vn 0 1 1e-006
vn 0 1 1e-006
vn 0 1 -1e-006
vn 0 1 -0
vn 0 1 1e-006
vn 0 1 -1e-006
vn 0 1 1e-006
vn 0 1 1e-006
vn 0 0 -1
vn 0 0 -1
vn 0 0 -1
vn 0 0 -1
vn 0 1 0
vn 0 1 0
vn 0 1 0
vn 0 1 0
vn 0 0 1
vn 0 0 1
vn 0 0 1
vn 0 0 1
vn 0 -1 0
vn 0 -1 0
vn 0 -1 0
vn 0 -1 0
vn -1 0 0
vn -1 0 0
vn -1 0 0
vn -1 0 0
vn 1 0 0
vn 1 0 0
vn 1 0 0
vn 1 0 0
vn 1 0 0
vn 1 0 0
vn 0 0 1
vn 0 0 1
vn -1 0 0
vn -1 0 0
vn -1 0 0
vn -1 0 0
vn 0 0 -1
vn 0 0 -1
vn -0.030045 -0.999549 0
vn -0.030045 -0.999549 0
vn -0.030045 -0.999549 0
vn -0.030045 -0.999549 0
vn -0.058986 0 0.998259
vn -0.058986 0 0.998259
vn -0.058986 0 0.998259
vn -0.058986 0 0.998259
vn -0.030045 0.999549 0
vn -0.030045 0.999549 0
vn -0.030045 0.999549 0
vn -0.030045 0.999549 0
vn -0.058986 0 -0.998259
vn -0.058986 0 -0.998259
vn -0.058986 0 -0.998259
vn -0.058986 0 -0.998259
vn -1 0 0
vn -1 0 0
vn -1 0 0
vn -1 0 0
vn 0 1 0
vn 0 1 0
vn 0 1 0
vn 0 1 0
vn 1 0 0
vn 1 0 0
vn 1 0 0
vn 1 0 0
vn 0 -1 0
vn 0 -1 0
vn 0 -1 0
vn 0 -1 0
vn 0 0 1
vn 0 0 1
vn 0 0 1
vn 0 0 1
vn 0 0 -1
vn 0 0 -1
vn 0 0 -1
vn 0 0 -1
vn 0 0 -1
vn 0 0 -1
vn 1 0 0
vn 1 0 0
vn 0 0 1
vn 0 0 1
vn 0 0 1
vn 0 0 1
vn -1 0 0
vn -1 0 0
vn 0 -0.999549 0.030045
vn 0 -0.999549 0.030045
vn 0 -0.999549 0.030045
vn 0 -0.999549 0.030045
vn 0.998259 0 0.058986
vn 0.998259 0 0.058986
vn 0.998259 0 0.058986
vn 0.998259 0 0.058986
vn 0 0.999549 0.030045
vn 0 0.999549 0.030045
vn 0 0.999549 0.030045
vn 0 0.999549 0.030045
vn -0.998259 0 0.058986
vn -0.998259 0 0.058986
vn -0.998259 0 0.058986
vn -0.998259 0 0.058986
#end 318 normals 

#begin 100 faces
usemtl initialShadingGroup
g Parrilla
s off
f 1/1/1 2/2/2 4/4/3 3/145/4 
f 13/13/5 14/14/6 15/15/7 16/16/8 
f 5/5/9 6/154/10 8/8/11 7/7/12 
f 7/151/13 8/156/14 2/148/15 1/147/16 
f 2/149/17 8/155/18 6/6/19 4/150/20 
f 7/152/21 1/146/22 3/3/23 5/153/24 
f 3/105/25 4/103/26 10/10/27 9/9/28 
f 4/103/29 6/108/30 11/11/31 10/10/32 
f 6/108/33 5/107/34 12/12/35 11/11/36 
f 5/107/37 3/105/38 9/9/39 12/12/40 
f 9/110/41 10/116/42 14/117/43 13/114/44 
f 10/109/45 11/122/46 15/120/47 14/118/48 
f 11/106/49 12/113/50 16/111/51 15/121/52 
f 12/104/53 9/119/54 13/115/55 16/112/56 
s 1
f 17/17/57 18/18/58 28/28/59 25/25/60 
s off
f 19/19/61 20/20/62 22/22/63 21/21/64 
s 2
f 26/26/65 27/27/66 24/24/67 23/23/68 
s off
f 23/226/69 24/232/70 18/216/71 17/214/72 
f 18/217/73 24/231/74 27/230/75 28/219/76 
s 3
f 23/227/77 17/213/78 25/215/79 26/228/80 
f 26/228/80 25/215/79 19/223/81 21/221/82 
s 2
f 21/222/83 22/225/84 27/27/66 26/26/65 
s off
f 30/30/85 29/29/86 31/31/87 32/32/88 
s 1
f 25/25/60 28/28/59 20/218/89 19/224/90 
s off
f 28/220/91 27/229/92 29/237/93 30/235/94 
f 27/27/95 22/225/96 31/239/97 29/238/98 
f 22/22/99 20/20/100 32/233/101 31/240/102 
f 20/218/103 28/28/104 30/236/105 32/234/106 
s 4
f 33/33/107 34/34/108 44/44/109 41/41/110 
s off
f 35/35/111 36/36/112 38/38/113 37/37/114 
s 5
f 42/42/115 43/43/116 40/40/117 39/39/118 
s off
f 39/170/119 40/176/120 34/160/121 33/158/122 
f 34/161/123 40/175/124 43/174/125 44/163/126 
s 6
f 39/171/127 33/157/128 41/159/129 42/172/130 
f 42/172/130 41/159/129 35/167/131 37/165/132 
s 5
f 37/166/133 38/169/134 43/43/116 42/42/115 
s off
f 46/46/135 45/45/136 47/47/137 48/48/138 
s 4
f 41/41/110 44/44/109 36/162/139 35/168/140 
s off
f 44/164/141 43/173/142 45/181/143 46/179/144 
f 43/43/145 38/169/146 47/183/147 45/182/148 
f 38/38/149 36/36/150 48/177/151 47/184/152 
f 36/162/153 44/44/154 46/180/155 48/178/156 
f 49/49/157 50/50/158 60/60/159 59/59/160 
f 50/50/161 51/51/162 61/61/163 60/60/164 
f 51/51/165 52/52/166 62/62/167 61/61/168 
f 52/52/169 53/53/170 63/63/171 62/62/172 
f 53/53/173 54/54/174 64/64/175 63/63/176 
f 54/54/177 55/55/178 65/65/179 64/64/180 
f 55/55/181 56/143/182 66/66/183 65/65/184 
f 56/56/185 57/57/186 67/67/187 66/144/188 
f 57/57/189 58/58/190 68/68/191 67/67/192 
f 58/58/193 49/49/194 59/59/195 68/68/196 
s 7
f 50/135/197 49/133/198 69/69/199 
f 51/136/200 50/135/197 69/69/199 
f 52/137/201 51/136/200 69/69/199 
f 53/138/202 52/137/201 69/69/199 
f 54/139/203 53/138/202 69/69/199 
f 55/140/204 54/139/203 69/69/199 
f 56/141/205 55/140/204 69/69/199 
f 57/134/206 56/141/205 69/69/199 
f 58/142/207 57/134/206 69/69/199 
f 49/133/198 58/142/207 69/69/199 
s 8
f 59/124/208 60/123/209 70/70/210 
f 60/123/209 61/126/211 70/70/210 
f 61/126/211 62/127/212 70/70/210 
f 62/127/212 63/128/213 70/70/210 
f 63/128/213 64/129/214 70/70/210 
f 64/129/214 65/130/215 70/70/210 
f 65/130/215 66/131/216 70/70/210 
f 66/131/216 67/125/217 70/70/210 
f 67/125/217 68/132/218 70/70/210 
f 68/132/218 59/124/208 70/70/210 
s 9
f 71/71/219 72/72/220 82/82/221 79/79/222 
s off
f 73/73/223 74/74/224 76/76/225 75/75/226 
s 10
f 80/80/227 81/81/228 78/78/229 77/77/230 
s off
f 77/254/231 78/260/232 72/244/233 71/242/234 
f 72/245/235 78/259/236 81/258/237 82/247/238 
s 11
f 77/255/239 71/241/240 79/243/241 80/256/242 
f 80/256/242 79/243/241 73/251/243 75/249/244 
s 10
f 75/250/245 76/253/246 81/81/228 80/80/227 
s off
f 84/84/247 83/83/248 85/85/249 86/86/250 
s 9
f 79/79/222 82/82/221 74/246/251 73/252/252 
s off
f 82/248/253 81/257/254 83/265/255 84/263/256 
f 81/81/257 76/253/258 85/267/259 83/266/260 
f 76/76/261 74/74/262 86/261/263 85/268/264 
f 74/246/265 82/82/266 84/264/267 86/262/268 
s 12
f 87/87/269 88/88/270 98/98/271 95/95/272 
s off
f 89/89/273 90/90/274 92/92/275 91/91/276 
s 13
f 96/96/277 97/97/278 94/94/279 93/93/280 
s off
f 93/198/281 94/204/282 88/188/283 87/186/284 
f 88/189/285 94/203/286 97/202/287 98/191/288 
s 14
f 93/199/289 87/185/290 95/187/291 96/200/292 
f 96/200/292 95/187/291 89/195/293 91/193/294 
s 13
f 91/194/295 92/197/296 97/97/278 96/96/277 
s off
f 100/100/297 99/99/298 101/101/299 102/102/300 
s 12
f 95/95/272 98/98/271 90/190/301 89/196/302 
s off
f 98/192/303 97/201/304 99/209/305 100/207/306 
f 97/97/307 92/197/308 101/211/309 99/210/310 
f 92/92/311 90/90/312 102/205/313 101/212/314 
f 90/190/315 98/98/316 100/208/317 102/206/318 
#end 100 faces

#begin properties
#U3DPROPERTIES_00 table {Mesh table {SymPlane table {Point vector3d 0 0 0  Normal vector3d 1 0 0  Threshold double 0.01 Enabled bool false } Maps table {Density table {PrimType string "Polygon" Size int 1 DefaultValue double 1 ScaleType string "Log" MinValue double 0.1 MaxValue double 4 Data doubles { r 101 1 } } Pin table {PrimType string "Vertex" Size int 1 DefaultValue double 0 ScaleType string "Normalized" MinValue double 0 MaxValue double 1 Data doubles { r 268 0 } } Protect table {PrimType string "Vertex" Size int 1 DefaultValue double 0 ScaleType string "Normalized" MinValue double -1 MaxValue double 1 Data doubles { r 268 0 } } } } }
#end properties

#begin 0 fatal error vertex (that Unfold3D cannot handle)
#end 0 fatal error vertex (that Unfold3D cannot handle)

#begin 0 error vertex
#end 0 error vertex
