#File written by LIBUNFOLD3D. Compilation :Nov 19 2015,18:10:47
mtllib Puerta_estufa_grande.mtl
#begin vertices
v -27.24695 -0 24.5913
v -6.802393 -0 24.5913
v -27.24695 21.58511 24.5913
v -6.802393 21.58511 24.5913
v -27.24695 21.58511 22.49862
v -6.802393 21.58511 22.49862
v -27.24695 -0 22.49862
v -6.802393 -0 22.49862
v -25.34971 2.003082 24.5913
v -8.699633 2.003082 24.5913
v -8.699633 19.58203 24.5913
v -25.34971 19.58203 24.5913
v -25.34971 2.003082 22.87002
v -8.699633 2.003082 22.87002
v -8.699633 19.58203 22.87002
v -25.34971 19.58203 22.87002
#end vertices

#begin 48 textures vertices 
vt 0.5922427 0.2922436 0
vt 0.9559385 0.2949538 0
vt 0.599956 0.1676404 0
vt 0.9636147 0.1617857 0
vt 0.6005553 0.2048641 0
vt 0.964214 0.1990094 0
vt 0.9833633 0.02120857 0
vt 0.8997109 0.02120857 0
vt 0.07476502 0.09631146 0
vt 0.5134115 0.09631146 0
vt 0.5134115 0.559429 0
vt 0.07476502 0.559429 0
vt 0.09762764 0.1215416 0
vt 0.4945391 0.1215416 0
vt 0.4945391 0.5405958 0
vt 0.09762764 0.5405958 0
vt 0.6117231 0.4364099 0
vt 0.3775934 0.9782222 0
vt 0.9833633 0.1095277 0
vt 0.8668242 0.9121022 0
vt 0.60459 0.3987076 0
vt 0.3775934 0.6654952 0
vt 0.8997109 0.1095277 0
vt 0.7546902 0.9239639 0
vt 0.9007825 0.3962645 0
vt 0.1722273 0.6526739 0
vt 0.5925201 0.2550161 0
vt 0.8668242 0.5281061 0
vt 0.1722273 0.965401 0
vt 0.9079175 0.4342026 0
vt 0.9040527 0.9121022 0
vt 0.02478224 0.6122002 0
vt 0.5633943 0.6122002 0
vt 0.7174617 0.9239639 0
vt 0.7546902 0.5399677 0
vt 0.9562159 0.2577263 0
vt 0.02478224 0.04354025 0
vt 0.9040527 0.5281061 0
vt 0.7174617 0.5399677 0
vt 0.5633943 0.04354025 0
vt 0.9005299 0.3656442 0
vt 0.2028486 0.6526739 0
vt 0.6043374 0.3680873 0
vt 0.3469721 0.6654952 0
vt 0.2028486 0.965401 0
vt 0.9081456 0.4648231 0
vt 0.6119513 0.4670304 0
vt 0.3469721 0.9782222 0
#end 48 textures vertices 

#begin 56 normals 
vn 0 0 1
vn 0 0 1
vn 0 0 1
vn 0 0 1
vn 0 1 0
vn 0 1 0
vn 0 1 0
vn 0 1 0
vn 0 0 -1
vn 0 0 -1
vn 0 0 -1
vn 0 0 -1
vn 0 -1 0
vn 0 -1 0
vn 0 -1 0
vn 0 -1 0
vn 1 0 0
vn 1 0 0
vn 1 0 0
vn 1 0 0
vn -1 0 0
vn -1 0 0
vn -1 0 0
vn -1 0 0
vn 0 0 1
vn 0 0 1
vn 0 0 1
vn 0 0 1
vn -0 0 1
vn -0 0 1
vn -0 0 1
vn -0 0 1
vn 0 0 1
vn 0 0 1
vn 0 0 1
vn 0 0 1
vn 0 0 1
vn 0 0 1
vn 0 0 1
vn 0 0 1
vn 0 1 0
vn 0 1 0
vn 0 1 0
vn 0 1 0
vn -1 0 0
vn -1 0 0
vn -1 0 0
vn -1 0 0
vn 0 -1 0
vn 0 -1 0
vn 0 -1 0
vn 0 -1 0
vn 1 0 0
vn 1 0 0
vn 1 0 0
vn 1 0 0
#end 56 normals 

#begin 14 faces
usemtl initialShadingGroup
g Puerta_Estufa_Grande
s off
f 13/13/1 14/14/2 15/15/3 16/16/4 
f 3/3/5 4/4/6 6/6/7 5/5/8 
f 5/19/9 6/23/10 8/8/11 7/7/12 
f 7/27/13 8/36/14 2/2/15 1/1/16 
f 2/39/17 8/35/18 6/24/19 4/34/20 
f 7/28/21 1/38/22 3/31/23 5/20/24 
f 1/37/25 2/40/26 10/10/27 9/9/28 
f 2/40/29 4/33/30 11/11/31 10/10/32 
f 4/33/33 3/32/34 12/12/35 11/11/36 
f 3/32/37 1/37/38 9/9/39 12/12/40 
f 9/43/41 10/41/42 14/25/43 13/21/44 
f 10/42/45 11/45/46 15/29/47 14/26/48 
f 11/46/49 12/47/50 16/17/51 15/30/52 
f 12/48/53 9/44/54 13/22/55 16/18/56 
#end 14 faces

#begin properties
#U3DPROPERTIES_00 table {Mesh table {SymPlane table {Point vector3d 0 0 0  Normal vector3d 1 0 0  Threshold double 0.01 Enabled bool false } Maps table {Density table {PrimType string "Polygon" Size int 1 DefaultValue double 1 ScaleType string "Log" MinValue double 0.1 MaxValue double 4 Data doubles { r 15 1 } } Pin table {PrimType string "Vertex" Size int 1 DefaultValue double 0 ScaleType string "Normalized" MinValue double 0 MaxValue double 1 Data doubles { r 48 0 } } Protect table {PrimType string "Vertex" Size int 1 DefaultValue double 0 ScaleType string "Normalized" MinValue double -1 MaxValue double 1 Data doubles { r 48 0 } } } } }
#end properties

#begin 0 fatal error vertex (that Unfold3D cannot handle)
#end 0 fatal error vertex (that Unfold3D cannot handle)

#begin 0 error vertex
#end 0 error vertex
