#File written by LIBUNFOLD3D. Compilation :Nov 19 2015,18:10:47
mtllib Room.mtl
#begin vertices
v -115.667 -1.981695 100.3728
v 115.667 -1.981695 100.3728
v -115.667 99.81616 100.3728
v 115.667 99.81616 100.3728
v -115.667 99.81616 -100.3728
v 115.667 99.81616 -100.3728
v -115.667 -1.981695 -100.3728
v 115.667 -1.981695 -100.3728
v -118.867 -5.181699 103.5728
v 118.867 -5.181699 103.5728
v 118.867 99.81616 103.5728
v -118.867 99.81616 103.5728
v -118.867 99.81616 -103.5728
v 118.867 99.81616 -103.5728
v 118.867 -5.181699 -103.5728
v -118.867 -5.181699 -103.5728
v -115.667 99.81616 23.44495
v -118.867 99.81616 24.51162
v -118.867 -5.181699 24.51162
v 118.867 -5.181699 24.51162
v 118.867 99.81616 24.51162
v 115.667 99.81616 23.44495
v 115.667 -1.981695 23.44495
v -115.667 -1.981695 23.44495
v -115.667 99.81616 -8.323824
v -118.867 99.81616 -9.390493
v -118.867 -5.181699 -9.390495
v 118.867 -5.181699 -9.390495
v 118.867 99.81616 -9.390493
v 115.667 99.81616 -8.323824
v 115.667 -1.981695 -8.323824
v -115.667 -1.981695 -8.323824
v -51.65383 -1.981695 -8.323824
v -51.65383 99.81616 -8.323824
v -51.65383 99.81616 23.44495
v -51.65383 -1.981695 23.44495
v -16.08142 -1.981695 100.3728
v -16.08141 -1.981695 23.44495
v -16.08141 -1.981695 -8.323824
v -16.08142 -1.981695 -100.3728
v -16.08142 99.81616 -100.3728
v -17.14808 99.81616 -103.5728
v -17.14808 -5.181699 -103.5728
v -17.14808 -5.181699 -9.390495
v -17.14808 -5.181699 24.51162
v -17.14808 -5.181699 103.5728
v 61.02995 -1.981695 100.3728
v 61.02995 -1.981695 23.44495
v 61.02995 -1.981695 -8.323824
v 61.02995 -1.981695 -100.3728
v 61.02995 99.81616 -100.3728
v 62.09662 99.81616 -103.5728
v 62.09662 -5.181699 -103.5728
v 62.09662 -5.181699 -9.390495
v 62.09662 -5.181699 24.51162
v 62.09662 -5.181699 103.5728
v -115.667 80.85257 100.3728
v -118.867 79.25257 103.5728
v -118.867 79.25257 24.51162
v -118.867 79.25257 -9.390493
v -118.867 79.25257 -103.5728
v -17.14808 79.25257 -103.5728
v 62.09662 79.25257 -103.5728
v 118.867 79.25257 -103.5728
v 118.867 79.25257 -9.390493
v 118.867 79.25257 24.51162
v 118.867 79.25257 103.5728
v 115.667 80.85257 100.3728
v 115.667 80.85257 -100.3728
v 61.02995 80.85257 -100.3728
v -16.08142 80.85257 -100.3728
v -115.667 80.85257 -100.3728
v -115.667 80.85257 -8.323824
v -115.667 80.85257 23.44495
v 30.00943 80.85257 -8.323824
v 30.00943 80.85257 23.44495
v 30.00943 99.81616 -8.323824
v 30.00943 99.81616 23.44495
v 104.9406 80.85257 23.44495
v 108.2553 80.32759 23.44495
v 111.2454 78.80402 23.44495
v 113.6184 76.43101 23.44495
v 115.142 73.44084 23.44495
v 115.667 70.12621 23.44495
v 115.667 80.85257 34.82198
v 115.667 92.22958 23.44495
v 104.9406 80.85257 -8.323824
v 115.667 92.22958 -8.323824
v 115.667 80.85257 -19.70084
v 115.667 70.12621 -8.323824
v 115.142 73.44084 -8.323824
v 113.6184 76.43101 -8.323824
v 111.2454 78.80402 -8.323824
v 108.2553 80.32759 -8.323824
v -40.92748 80.85257 -8.323824
v -44.2421 80.32759 -8.323824
v -47.23226 78.80402 -8.323824
v -49.60528 76.43101 -8.323824
v -51.12884 73.44084 -8.323824
v -51.65383 70.12621 -8.323824
v -60.80935 80.85257 -8.323824
v -51.65383 90.00809 -8.323824
v -40.92748 80.85257 23.44495
v -51.65383 90.00809 23.44495
v -60.80935 80.85257 23.44495
v -51.65383 70.12621 23.44495
v -51.12884 73.44084 23.44495
v -49.60528 76.43101 23.44495
v -47.23226 78.80402 23.44495
v -44.2421 80.32759 23.44495
v 115.667 87.67879 23.44495
v 115.667 80.85257 30.27116
v 115.667 83.12798 23.44495
v 115.667 80.85257 25.72036
v 115.667 80.85257 -15.15004
v 115.667 87.67879 -8.323824
v 115.667 80.85257 -10.59923
v 115.667 83.12798 -8.323824
v -51.65383 86.34588 -8.323824
v -57.14714 80.85257 -8.323824
v -51.65383 82.68367 -8.323824
v -53.48493 80.85257 -8.323824
v -57.14714 80.85257 23.44495
v -51.65383 86.34588 23.44495
v -53.48493 80.85257 23.44495
v -51.65383 82.68367 23.44495
#end vertices

#begin 264 textures vertices 
vt 0.6581349 0.01028843 0
vt 0.9738812 0.3095647 0
vt 0.5256147 0.705374 0
vt 0.8252765 0.7001344 0
vt 0.5301615 0.9654127 0
vt 0.8298233 0.9601731 0
vt 0.2183237 0.3458678 0
vt 0.9871297 0.2941324 0
vt 0.1263362 0.2167275 0
vt 0.1398207 0.1365421 0
vt 0.8293492 0.6959168 0
vt 0.06283857 0.9807127 0
vt 0.5260888 0.9696303 0
vt 0.834041 0.9642458 0
vt 0.1460092 0.2720687 0
vt 0.1244926 0.1533242 0
vt 0.3431879 0.03731345 0
vt 0.5231877 0.8037144 0
vt 0.03367547 0.1008617 0
vt 0.08046235 0.2720687 0
vt 0.8311399 0.7983298 0
vt 0.8270189 0.799784 0
vt 0.3358259 0.1267172 0
vt 0.2432689 0.02009921 0
vt 0.5280766 0.8461758 0
vt 0.5239556 0.84763 0
vt 0.08169911 0.2167275 0
vt 0.09781166 0.2720687 0
vt 0.8319078 0.8422454 0
vt 0.8277385 0.8409362 0
vt 0.7904076 0.3149864 0
vt 0.5269692 0.1838372 0
vt 0.2707426 0.6340897 0
vt 0.4259154 0.07888365 0
vt 0.42612 0.03772572 0
vt 0.2295842 0.6340897 0
vt 0.7994105 0.009883456 0
vt 0.5676364 0.1196813 0
vt 0.7998525 0.1640843 0
vt 0.3854038 0.3458678 0
vt 0.6591611 0.9631571 0
vt 0.6578519 0.9673264 0
vt 0.08298086 0.1533242 0
vt 0.07918932 0.0858552 0
vt 0.07914044 0.1010083 0
vt 0.07902646 0.136346 0
vt 0.9088034 0.009569871 0
vt 0.9091162 0.1187024 0
vt 0.9092454 0.1637707 0
vt 0.9096197 0.2943545 0
vt 0.7590484 0.9614106 0
vt 0.7605026 0.9655316 0
vt 0.1147448 0.0438731 0
vt 0.1146091 0.08596944 0
vt 0.1145602 0.1011226 0
vt 0.1144462 0.1364603 0
vt 0.03554927 0.5440116 0
vt 0.1263362 0.2500914 0
vt 0.09509541 0.2500914 0
vt 0.08169911 0.2500914 0
vt 0.1244926 0.187782 0
vt 0.08298086 0.187782 0
vt 0.05064092 0.187782 0
vt 0.1460092 0.3152777 0
vt 0.09781166 0.3152777 0
vt 0.08046234 0.3152777 0
vt 0.04000302 0.3152777 0
vt 0.9782508 0.4507667 0
vt 0.6304133 0.4504598 0
vt 0.5147777 0.4848433 0
vt 0.3854038 0.4848433 0
vt 0.2183237 0.4848433 0
vt 0.02040102 0.7689191 0
vt 0.1865414 0.5440116 0
vt 0.5792332 0.6585988 0
vt 0.6203916 0.6585988 0
vt 0.5317139 0.07940961 0
vt 0.5319185 0.03825167 0
vt 0.6203916 0.5615208 0
vt 0.6203916 0.5571729 0
vt 0.6203916 0.5528251 0
vt 0.6203916 0.5484773 0
vt 0.8455721 0.4447662 0
vt 0.7997233 0.119016 0
vt 0.8663727 0.4563584 0
vt 0.225034 0.290182 0
vt 0.2410425 0.2908455 0
vt 0.7870979 0.4771259 0
vt 0.7690953 0.4563527 0
vt 0.7897713 0.4387249 0
vt 0.789618 0.4444659 0
vt 0.8493657 0.4899309 0
vt 0.5792332 0.5528251 0
vt 0.5792332 0.5571729 0
vt 0.5792332 0.750502 0
vt 0.5792332 0.7548499 0
vt 0.5792332 0.7591977 0
vt 0.5792332 0.7635456 0
vt 0.2707426 0.7318578 0
vt 0.4439353 0.2771679 0
vt 0.4557818 0.2910774 0
vt 0.4439074 0.3029261 0
vt 0.6203916 0.750502 0
vt 0.3262261 0.1392609 0
vt 0.3143622 0.1274017 0
vt 0.2295842 0.72751 0
vt 0.2295842 0.7318578 0
vt 0.2295842 0.7362056 0
vt 0.6203916 0.7591977 0
vt 0.6203916 0.7548499 0
vt 0.5430001 0.1361991 0
vt 0.8586075 0.4568416 0
vt 0.5429989 0.1303032 0
vt 0.8509462 0.4573957 0
vt 0.7769139 0.4568163 0
vt 0.7876766 0.4695115 0
vt 0.8484279 0.4770759 0
vt 0.7883383 0.4619339 0
vt 0.4439126 0.2981815 0
vt 0.4510372 0.2910723 0
vt 0.4439177 0.2934369 0
vt 0.4462926 0.2910671 0
vt 0.3191068 0.1274008 0
vt 0.3262252 0.1345163 0
vt 0.3238514 0.1273998 0
vt 0.3262242 0.1297716 0
vt 0.2405266 0.8532396 0
vt 0.1128647 0.8585426 0
vt 0.1087446 0.8526614 0
vt 0.03554927 0.581233 0
vt 0.4527513 0.9573055 0
vt 0.4125694 0.8598576 0
vt 0.4167409 0.8540128 0
vt 0.07182917 0.9556342 0
vt 0.2418828 0.8591087 0
vt 0.9803285 0.4829346 0
vt 0.4478975 0.961193 0
vt 0.07664875 0.9595641 0
vt 0.2183237 0.5166596 0
vt 0.3854038 0.5166596 0
vt 0.08298086 0.1961741 0
vt 0.1244926 0.1961741 0
vt 0.3380939 0.3155188 0
vt 0.04000302 0.3258011 0
vt 0.08046234 0.3258011 0
vt 0.5430033 0.1519238 0
vt 0.1865414 0.581233 0
vt 0.09509541 0.2582171 0
vt 0.1263362 0.2582171 0
vt 0.08169911 0.2582171 0
vt 0.09781166 0.3258011 0
vt 0.5268267 0.3157227 0
vt 0.6064451 0.5166596 0
vt 0.7861645 0.489843 0
vt 0.1460092 0.3258011 0
vt 0.4320286 0.1519464 0
vt 0.4438937 0.3156331 0
vt 0.3262287 0.1519679 0
vt 0.3417844 0.859547 0
vt 0.05064092 0.1961741 0
vt 0.5147777 0.5166596 0
vt 0.343192 0.8536901 0
vt 0.4559853 0.9843921 0
vt 0.521397 0.7013014 0
vt 0.06835768 0.9826913 0
vt 0.4615215 0.982462 0
vt 0.6064451 0.3458678 0
vt 0.8002268 0.2946681 0
vt 0.1855396 0.7689191 0
vt 0.1855396 0.6203119 0
vt 0.6064451 0.4848433 0
vt 0.5147777 0.3458678 0
vt 0.628749 0.4826337 0
vt 0.1855396 0.8029404 0
vt 0.3641331 0.9490485 0
vt 0.1288919 0.9507041 0
vt 0.6785257 0.690856 0
vt 0.6785257 0.583539 0
vt 0.1275099 0.946069 0
vt 0.7237935 0.6896492 0
vt 0.7237935 0.5802593 0
vt 0.3655151 0.9431855 0
vt 0.6741556 0.5793932 0
vt 0.2628486 0.9431855 0
vt 0.6741556 0.6887831 0
vt 0.2301764 0.946069 0
vt 0.7194234 0.5844051 0
vt 0.2642305 0.9490485 0
vt 0.2287945 0.9507041 0
vt 0.7194234 0.6917221 0
vt 0.03386013 0.0436122 0
vt 0.02747281 0.187782 0
vt 0.05064092 0.1533242 0
vt 0.0444833 0.2500914 0
vt 0.0793251 0.04375886 0
vt 0.02747281 0.1961741 0
vt 0.02747281 0.1533242 0
vt 0.0444833 0.2582171 0
vt 0.6589512 0.2950731 0
vt 0.02040102 0.6203119 0
vt 0.02040102 0.8029404 0
vt 0.5268533 0.2911542 0
vt 0.5677656 0.1647496 0
vt 0.3288766 0.1216704 0
vt 0.3319516 0.1247441 0
vt 0.3262019 0.02008236 0
vt 0.4320236 0.1273778 0
vt 0.8454134 0.4389116 0
vt 0.8431937 0.3148442 0
vt 0.3401204 0.1273965 0
vt 0.3262209 0.1135027 0
vt 0.5291016 0.1273581 0
vt 0.7897976 0.4502329 0
vt 0.2271426 0.2937784 0
vt 0.5372693 0.1247024 0
vt 0.5333958 0.1266771 0
vt 0.3269019 0.1177968 0
vt 0.4440362 0.1837477 0
vt 0.6585769 0.1644892 0
vt 0.2271299 0.3055701 0
vt 0.2271193 0.315399 0
vt 0.5792332 0.5615208 0
vt 0.4300236 0.2910496 0
vt 0.3381205 0.2909503 0
vt 0.2328771 0.2881826 0
vt 0.229806 0.2851049 0
vt 0.2707426 0.72751 0
vt 0.2367489 0.2901607 0
vt 0.4432505 0.2814615 0
vt 0.4412724 0.2853333 0
vt 0.4381947 0.2884044 0
vt 0.4343186 0.2903741 0
vt 0.2271363 0.2996742 0
vt 0.7847781 0.4577891 0
vt 0.8478768 0.4693395 0
vt 0.5430013 0.1420949 0
vt 0.8473293 0.4615892 0
vt 0.539521 0.1209831 0
vt 0.5440582 0.1262711 0
vt 0.9866262 0.1184802 0
vt 0.9863134 0.009347682 0
vt 0.9867554 0.1635485 0
vt 0.6351178 0.3103769 0
vt 0.1865414 0.3814264 0
vt 0.6584477 0.1194209 0
vt 0.03554927 0.3814264 0
vt 0.2432907 0.1274162 0
vt 0.2432957 0.1519847 0
vt 0.04000302 0.2720687 0
vt 0.1399347 0.1012044 0
vt 0.1399835 0.08605129 0
vt 0.1401193 0.04395494 0
vt 0.03356149 0.1361994 0
vt 0.09509541 0.2167275 0
vt 0.03372435 0.08570855 0
vt 0.0444833 0.2167275 0
vt 0.5273571 0.8050236 0
vt 0.3429833 0.07847138 0
vt 0.6428919 0.03880335 0
vt 0.6426873 0.07996128 0
vt 0.8449068 0.4505353 0
vt 0.5792332 0.5484773 0
vt 0.2707426 0.7362056 0
vt 0.6203916 0.7635456 0
#end 264 textures vertices 

#begin 280 normals 
vn 0 0 -1
vn 0 0 -1
vn 0 0 -1
vn 0 0 -1
vn 0 -1 0
vn 0 -1 0
vn 0 -1 0
vn 0 -1 0
vn 1 0 0
vn 1 -0 0
vn 1 0 0
vn 1 0 0
vn -1 0 0
vn -1 0 0
vn -1 -0 0
vn -1 0 0
vn 0 0 1
vn 0 0 1
vn 0 0 1
vn 0 0 1
vn 0 1 0
vn 0 1 0
vn 0 1 0
vn 0 1 0
vn -1 0 0
vn -1 0 0
vn -1 -7.4e-005 0.000116
vn -0.999999 -0.001498 0.000126
vn -1 0 0
vn 1 0 0
vn 1 0 0
vn 1 0 0
vn 1 0 0
vn 0 1 1e-006
vn 0 1 1e-006
vn 0 1 1e-006
vn 0 1 1e-006
vn 0 1 0
vn 0 1 0
vn 0 1 0
vn 0 1 0
vn 0 1 0
vn 0 1 0
vn 0 1 0
vn 0 1 0
vn 0 1 0
vn 0 1 0
vn -1 0 0
vn -1 -0 0
vn 0 -1 0
vn 0 -1 0
vn 1 0 0
vn 1 -0 0
vn 0 1 0
vn 0 1 0
vn -0.999999 -0.001294 -0.000109
vn -1 0 0
vn 0 1 -0
vn 0 1 -0
vn 1 0 0
vn 0.999976 -0.00696 0
vn 0.999976 -0.00696 0
vn 1 0 0
vn -1 0 0
vn -1 0 0
vn 0 -1 0
vn 0 -1 0
vn 1 0 0
vn 1 0 0
vn 0 1 0
vn 0 1 0
vn -1 -6.1e-005 -9.6e-005
vn -1 0 0
vn -1 0 0
vn 0 1 -0
vn 0 1 -0
vn 1 0 0
vn 1 0 0
vn 1 0 0
vn 1 0 0
vn 0.277329 0.526404 0.803734
vn 0.229179 0.56409 0.793271
vn 0.370023 0.445315 0.815339
vn 0.433896 0.382052 0.815948
vn 0.399338 0.417093 0.816433
vn 0.370023 0.445315 0.815339
vn 0 0 -1
vn 0 0 -1
vn 0 0 -1
vn 0 0 -1
vn 0 0 -1
vn 0 1 0
vn 0 1 0
vn 0 1 0
vn 0 1 0
vn 0 -1 0
vn 0 -1 0
vn 0 -1 0
vn 0 -1 0
vn 0 1 0
vn 0 1 0
vn 0 1 0
vn 0 1 0
vn 0 1 1e-006
vn 0 1 0
vn 0 -1 0
vn 0 -1 0
vn 0 -1 0
vn 0 -1 0
vn -0.344535 0.468802 0.813339
vn -0.274714 0.528524 0.80324
vn 0 1 0
vn 0 1 0
vn 0 1 0
vn 0 1 0
vn 0 0 1
vn 0 0 1
vn 0 0 1
vn 0 0 1
vn -0 0 -1
vn -0 0 -1
vn -0 0 -1
vn -0 0 -1
vn 0 -1 0
vn 0 -1 0
vn 0 -1 0
vn 0 -1 0
vn -0.486834 0.324249 0.811083
vn -0.486834 0.324249 0.811083
vn -0.511356 0.295581 0.806937
vn -0.538419 0.262372 0.800791
vn 0.707107 0 0.707107
vn 0.707107 0 0.707107
vn -1 0 0
vn -1 0 0
vn -1 0 0
vn -1 0 0
vn 0 0 -1
vn 0 0 -1
vn -0 0 -1
vn -0 0 -1
vn 1 0 0
vn 1 0 0
vn 1 0 0
vn 1 0 0
vn -0.707107 0 0.707107
vn -0.707107 0 0.707107
vn -1 0 0
vn -1 0 0
vn -1 0 0
vn 0 0 1
vn 0 0 1
vn 0 0 1
vn 0 0 1
vn 1 0 0
vn 1 0 0
vn -0 0 1
vn -0 0 1
vn -0 0 1
vn -0 0 1
vn -0 0 1
vn 1 0 0
vn 1 0 0
vn -0.948683 0 -0.316229
vn -0.948683 0 -0.316229
vn -0.948683 0 -0.316229
vn -0.948683 0 -0.316229
vn 0 -0.894427 0.447215
vn 0 -0.894427 0.447215
vn 0 -0.894427 0.447215
vn 0 -0.894427 0.447215
vn 0.948683 0 -0.316228
vn 0.948683 0 -0.316228
vn 0.948683 0 -0.316228
vn 0.948683 0 -0.316228
vn 0 0.707105 -0.707108
vn 0 0.707105 -0.707108
vn 0 0.707105 -0.707108
vn 0 0.707105 -0.707108
vn 0.00707 -0.999975 0
vn 0.00707 -0.999975 0
vn 0 -1 0
vn 0 -1 0
vn 0 1 0
vn 0 1 0
vn 0 1 0
vn 0 1 0
vn 0 0 1
vn 0 0 1
vn 0 0 1
vn 0 0 1
vn 0 0 -1
vn 0 0 -1
vn 0 0 -1
vn 0 0 -1
vn 0 0 -1
vn -0.006709 -0.999978 0
vn -0.006709 -0.999978 0
vn 0 -1 0
vn 0 -1 0
vn 0 1 0
vn 0 1 0
vn 0 1 0
vn 0 1 0
vn 0 0 1
vn 0 0 1
vn 0 0 1
vn 0 0 1
vn 0 0 1
vn -1 -0 0
vn -1 0 0
vn -1 0 0
vn -0 0 -1
vn -0 0 -1
vn -0 0 -1
vn -0 0 -1
vn -0 0 -1
vn 0 0 -1
vn 0 0 -1
vn 0 0 1
vn 0 0 1
vn 0 0 1
vn -0.968291 -0.248166 0.028741
vn -0.968291 -0.248167 -0.028741
vn -0.809016 -0.587786 0
vn -0.809016 -0.587786 0
vn -0.587786 -0.809016 0
vn -0.587786 -0.809016 0
vn -0.309017 -0.951056 0
vn -0.309017 -0.951056 0
vn 0.951057 -0.309016 0
vn 0.951057 -0.309016 0
vn 0.809016 -0.587786 0
vn 0.809016 -0.587786 0
vn 0.587786 -0.809017 0
vn 0.587786 -0.809017 0
vn 0.309017 -0.951057 0
vn 0.309017 -0.951057 0
vn 0 0 1
vn 0 0 1
vn -1 -3e-006 0
vn -0.998233 -0.021492 0.055405
vn 0 0 1
vn 0 0 1
vn -1 0 0
vn -0.98968 -0.011965 0.142795
vn -0.952857 -0.025335 0.302361
vn -0.507992 0.155391 0.84723
vn -0.507992 0.155391 0.84723
vn -0.507992 0.155391 0.84723
vn -0.507992 0.155391 0.84723
vn -0.998233 -0.021492 -0.055406
vn -1 0 0
vn 0 0 -1
vn 0 0 -1
vn -0.952857 -0.025335 -0.302361
vn -0.98968 -0.011965 -0.142795
vn -1 0 0
vn 0 0 -1
vn 0 0 -1
vn -0.507992 0.155391 -0.84723
vn -0.507992 0.155391 -0.84723
vn -0.507992 0.155391 -0.84723
vn -0.507992 0.155391 -0.84723
vn 0 0 -1
vn 0 0 -1
vn 0 0 -1
vn 0 0 -1
vn 0 0 -1
vn 0 0 -1
vn 0 0 -1
vn 0 0 -1
vn 0 0 1
vn 0 0 1
vn 0 0 1
vn 0 0 1
vn -0 0 1
vn -0 0 1
vn -1e-006 0 1
vn -1e-006 0 1
#end 280 normals 

#begin 120 faces
usemtl initialShadingGroup
g Room
s 1
f 61/61/1 62/62/2 43/43/3 16/16/4 
s 2
f 19/19/5 45/45/6 46/46/7 9/253/8 
s 3
f 10/249/9 20/20/10 66/66/11 67/67/12 
s 4
f 58/58/13 59/59/14 19/254/15 9/9/16 
s 5
f 71/71/17 72/72/18 7/7/19 40/40/20 
s 6
f 37/37/21 38/84/22 24/245/23 1/1/24 
s 7
f 2/2/25 68/68/26 85/85/27 84/208/28 23/209/29 
s 8
f 24/244/30 74/74/31 57/57/32 1/246/33 
s 9
f 5/5/34 41/41/35 42/42/36 13/13/37 
f 21/21/38 22/22/39 4/4/40 11/11/41 
f 3/3/42 17/257/43 18/18/44 12/164/45 
f 18/18/44 17/257/43 25/25/46 26/26/47 
s 4
f 59/59/14 60/60/48 27/27/49 19/254/15 
s 2
f 27/255/50 44/44/51 45/45/6 19/19/5 
s 3
f 65/65/52 66/66/11 20/20/10 28/28/53 
s 9
f 29/29/54 30/30/55 22/22/39 21/21/38 
s 7
f 23/209/29 84/208/28 90/90/56 31/31/57 
s 6
f 38/84/22 39/39/58 32/219/59 24/245/23 
s 12
f 33/33/60 100/227/61 106/106/62 36/36/63 
s 9
f 26/26/47 25/25/46 5/5/34 13/13/37 
s 4
f 16/256/64 27/27/49 60/60/48 61/194/65 
s 2
f 16/191/66 43/195/67 44/44/51 27/255/50 
s 3
f 64/64/68 65/65/52 28/28/53 15/15/69 
s 9
f 6/6/70 30/30/55 29/29/54 14/14/71 
s 7
f 31/31/57 90/90/56 89/89/72 69/69/73 8/243/74 
s 6
f 7/199/75 32/219/59 39/39/58 40/168/76 
s 13
f 7/170/77 72/169/78 73/73/79 32/200/80 
s 14
f 46/127/81 37/135/82 1/128/83 57/138/84 58/134/85 9/129/86 
s 15
f 32/32/87 73/202/88 101/101/89 100/100/90 33/218/91 
s off
f 25/258/92 17/17/93 35/35/94 34/34/95 
f 24/245/96 32/219/97 33/203/98 36/38/99 
s 6
f 47/47/100 48/48/101 38/84/22 37/37/21 
f 48/48/101 49/49/102 39/39/58 38/84/22 
f 40/168/76 39/39/58 49/49/102 50/50/103 
s 9
f 42/42/36 41/41/35 51/51/104 52/52/105 
s 2
f 44/44/51 43/195/67 53/53/106 54/54/107 
f 45/45/6 44/44/51 54/54/107 55/55/108 
f 46/46/7 45/45/6 55/55/108 56/56/109 
s 14
f 56/162/110 47/159/111 37/135/82 46/127/81 
s 6
f 23/240/112 48/48/101 47/47/100 2/241/113 
f 31/242/114 49/49/102 48/48/101 23/240/112 
f 50/50/103 49/49/102 31/242/114 8/8/115 
s 5
f 69/171/116 70/70/117 50/172/118 8/167/119 
s 9
f 52/52/105 51/51/104 6/6/70 14/14/71 
s 1
f 53/193/120 63/63/121 64/192/122 15/197/123 
s 2
f 54/54/107 53/53/106 15/252/124 28/251/125 
f 55/55/108 54/54/107 28/251/125 20/250/126 
f 56/56/109 55/55/108 20/250/126 10/10/127 
s 14
f 2/132/128 47/159/111 56/162/110 10/133/129 67/131/130 68/137/131 
f 58/134/85 57/138/84 3/165/132 12/12/133 
s 4
f 18/148/134 59/59/14 58/58/13 12/149/135 
f 26/150/136 60/60/48 59/59/14 18/148/134 
f 61/194/65 60/60/48 26/150/136 13/198/137 
s 1
f 13/142/138 42/141/139 62/62/2 61/61/1 
f 63/63/121 62/62/2 42/141/139 52/160/140 
f 64/192/122 63/63/121 52/160/140 14/196/141 
s 3
f 29/151/142 65/65/52 64/64/68 14/155/143 
f 21/145/144 66/66/11 65/65/52 29/151/142 
f 67/67/12 66/66/11 21/145/144 11/144/145 
s 14
f 68/137/131 67/131/130 11/166/146 4/163/147 
s 7
f 69/69/73 89/89/72 88/88/148 30/154/149 6/173/150 
s 5
f 51/161/151 70/70/117 69/171/116 6/153/152 
f 41/140/153 71/71/17 70/70/117 51/161/151 
f 5/139/154 72/72/18 71/71/17 41/140/153 
s 13
f 73/73/79 72/169/78 5/174/155 25/201/156 
s 18
f 17/248/157 74/247/158 105/105/159 104/104/160 35/158/161 
s 8
f 57/57/32 74/74/31 17/147/162 3/130/163 
s off
f 50/178/164 70/177/165 63/185/166 53/183/167 
f 70/189/168 71/176/169 62/179/170 63/186/171 
f 71/190/172 40/187/173 43/181/174 62/180/175 
f 40/175/176 50/188/177 53/184/178 43/182/179 
s 12
f 103/103/180 95/95/181 75/75/182 76/76/183 
s off
f 34/34/184 35/35/185 78/78/186 77/77/187 
s 18
f 35/158/188 104/104/160 103/210/189 76/207/190 78/156/191 
s 21
f 30/221/192 88/220/193 87/87/194 75/224/195 77/143/196 
s 7
f 87/222/197 79/79/198 76/76/199 75/75/200 
s off
f 22/259/201 30/260/202 77/77/203 78/78/204 
s 23
f 79/212/205 86/236/206 22/146/207 78/156/208 76/207/209 
s 7
f 86/117/210 85/85/27 68/68/26 4/136/211 22/92/212 
s 15
f 95/223/213 102/102/214 34/157/215 77/143/216 75/224/217 
f 102/102/214 101/101/89 73/202/88 25/152/218 34/157/219 
s 18
f 106/211/220 105/105/159 74/247/158 24/24/221 36/206/222 
s 7
f 84/208/28 83/83/223 91/91/224 90/90/56 
f 83/83/223 82/261/225 92/213/226 91/91/224 
f 82/82/225 81/81/227 93/93/228 92/262/226 
f 81/81/227 80/80/229 94/94/230 93/93/228 
f 80/80/229 79/79/198 87/222/197 94/94/230 
s 12
f 100/227/61 99/99/231 107/107/232 106/106/62 
f 99/99/231 98/263/233 108/108/234 107/107/232 
f 98/98/233 97/97/235 109/109/236 108/264/234 
f 97/97/235 96/96/237 110/110/238 109/109/236 
f 96/96/237 95/95/181 103/103/180 110/110/238 
s 23
f 79/212/205 80/216/239 111/111/240 86/236/206 
s 7
f 86/117/210 111/235/241 112/112/242 85/85/27 
f 85/85/27 112/112/242 83/83/223 84/208/28 
s 23
f 80/216/239 81/215/243 113/113/244 111/111/240 
s 7
f 111/235/241 113/237/245 114/114/246 112/112/242 
f 112/112/242 114/114/246 82/261/247 83/83/223 
s off
f 82/238/248 114/239/249 113/113/250 81/215/251 
s 7
f 90/90/56 91/91/224 115/115/252 89/89/72 
f 89/89/72 115/115/252 116/116/253 88/88/148 
s 21
f 88/220/193 116/233/254 94/228/255 87/87/194 
s 7
f 91/91/224 92/213/256 117/234/257 115/115/252 
f 115/115/252 117/234/257 118/118/258 116/116/253 
s 21
f 116/233/254 118/214/259 93/225/260 94/228/255 
s off
f 93/225/261 118/214/262 117/86/263 92/226/264 
s 15
f 95/223/213 96/232/265 119/119/266 102/102/214 
f 102/102/214 119/119/266 120/120/267 101/101/89 
f 101/101/89 120/120/267 99/229/268 100/100/90 
f 96/232/265 97/231/269 121/121/270 119/119/266 
f 119/119/266 121/121/270 122/122/271 120/120/267 
f 120/120/267 122/122/271 98/230/272 99/229/268 
f 98/230/272 122/122/271 121/121/270 97/231/269 
s 18
f 106/211/220 107/217/273 123/123/274 105/105/159 
f 105/105/159 123/123/274 124/124/275 104/104/160 
f 104/104/160 124/124/275 110/23/276 103/210/189 
f 107/217/273 108/204/277 125/125/278 123/123/274 
f 123/123/274 125/125/278 126/126/279 124/124/275 
f 124/124/275 126/126/279 109/205/280 110/23/276 
f 109/205/280 126/126/279 125/125/278 108/204/277 
#end 120 faces

#begin properties
#U3DPROPERTIES_00 table {Mesh table {SymPlane table {Point vector3d 0 0 0  Normal vector3d 1 0 0  Threshold double 0.01 Enabled bool false } Maps table {Density table {PrimType string "Polygon" Size int 1 DefaultValue double 1 ScaleType string "Log" MinValue double 0.1 MaxValue double 4 Data doubles { r 120 1 } } Pin table {PrimType string "Vertex" Size int 1 DefaultValue double 0 ScaleType string "Normalized" MinValue double 0 MaxValue double 1 Data doubles { r 264 0 } } Protect table {PrimType string "Vertex" Size int 1 DefaultValue double 0 ScaleType string "Normalized" MinValue double -1 MaxValue double 1 Data doubles { r 264 0 } } } } }
#end properties

#begin 0 fatal error vertex (that Unfold3D cannot handle)
#end 0 fatal error vertex (that Unfold3D cannot handle)

#begin 0 error vertex
#end 0 error vertex
